# xmcd
#
# Track frame offsets:
#	150
#	12830
#	26527
#	41685
#	55790
#	68442
#	79960
#	96265
#	110480
#	122912
#
# Disc length: 1838 seconds
#
# Revision: 2
# Processed by: cddbd v1.5.2PL0 Copyright (c) Steve Scherf et al.
# Submitted via: audiograbber 1.83.01
#
DISCID=7b072c0a
DTITLE=Wild Rose - Straight And Narrow
DYEAR=1990
DGENRE=Country
TTITLE0=Straight And Narrow
TTITLE1=Lonely Won't Leave Me Alone
TTITLE2=If Hearts Could Talk
TTITLE3=Rock-A-Bye Heart
TTITLE4=Forever In Love
TTITLE5=Everything He Touches (Turns To Gold)
TTITLE6=Right Between The Lies
TTITLE7=Your One And Only
TTITLE8=Can't You Just Stay Gone
TTITLE9=Hit The Highway
EXTD=
EXTT0=
EXTT1=
EXTT2=
EXTT3=
EXTT4=
EXTT5=
EXTT6=
EXTT7=
EXTT8=
EXTT9=
PLAYORDER=
